<?xml version="1.0" encoding="utf-8"?>
<!-- Generator: Adobe Illustrator 27.2.0, SVG Export Plug-In . SVG Version: 6.00 Build 0)  -->
<svg version="1.1" id="Livello_1" xmlns="http://www.w3.org/2000/svg" xmlns:xlink="http://www.w3.org/1999/xlink" x="0px" y="0px"
	 viewBox="0 0 144 144" style="enable-background:new 0 0 144 144;" xml:space="preserve">
<style type="text/css">
	.st0{fill-rule:evenodd;clip-rule:evenodd;fill:#FFFFFF;}
</style>
<path id="path-1" class="st0" d="M132.5,92.5c-2.4,3-8.3,5.2-8.3,5.2l-43.7,15.7v-11.6l32.1-11.5c3.6-1.3,4.2-3.2,1.2-4.1
	c-3-1-8.3-0.7-12,0.6l-21.4,7.5v-12l1.2-0.4c0,0,6.2-2.2,14.9-3.2c8.7-1,19.4,0.1,27.7,3.3C133.8,85.1,134.9,89.5,132.5,92.5z
	 M84.7,72.8V43.2c0-3.5-0.6-6.7-3.9-7.6c-2.5-0.8-4,1.5-4,5v74.1l-20-6.3V20c8.5,1.6,20.9,5.3,27.5,7.5c16.9,5.8,22.7,13,22.7,29.3
	C107,72.8,97.2,78.8,84.7,72.8z M20.1,100.6c-9.7-2.7-11.3-8.4-6.9-11.7c4.1-3,11-5.3,11-5.3l28.7-10.2V85l-20.6,7.4
	c-3.6,1.3-4.2,3.2-1.2,4.1c3,1,8.3,0.7,12-0.6l9.9-3.6v10.4c-0.6,0.1-1.3,0.2-2,0.3C41,104.7,30.5,104,20.1,100.6L20.1,100.6z"/>
</svg>
