<?xml version="1.0" encoding="utf-8"?>
<!-- Generator: Adobe Illustrator 27.2.0, SVG Export Plug-In . SVG Version: 6.00 Build 0)  -->
<svg version="1.1" id="uuid-c5f36760-9dfc-4ceb-bf54-37c88f4f95a2"
	 xmlns="http://www.w3.org/2000/svg" xmlns:xlink="http://www.w3.org/1999/xlink" x="0px" y="0px" viewBox="0 0 200 200"
	 style="enable-background:new 0 0 200 200;" xml:space="preserve">
<style type="text/css">
	.st0{fill:#0046CE;}
	.st1{fill:#FFFFFF;}
</style>
<circle class="st0" cx="100" cy="100" r="95"/>
<g>
	<path class="st1" d="M142.6,82.6c-28.5,0-56.8,0-85.2,0c0,0.4-0.1,0.9-0.1,1.3c0,14.5,0,28.9,0,43.4c0,2.4,1,3.3,3.4,3.3
		c6,0,11.9,0,17.9,0c2.3,0,3.9,1.1,4.9,3.1c0.9,2,0.6,3.9-0.7,5.6c-1,1.2-2.3,1.9-3.9,1.9c-6.6,0-13.2,0.1-19.8,0
		c-6.4-0.1-12-5.7-12.4-12.2c0-0.6,0-1.1,0-1.7c0-20.9,0-41.9,0-62.8c0-5.8,2.6-10.2,7.9-12.6c1.7-0.8,3.8-1.2,5.7-1.2
		c26.5-0.1,53-0.1,79.5,0c7.8,0,13.5,5.7,13.6,13.5c0.1,21.2,0.1,42.4,0,63.6c0,7.7-5.8,13.4-13.5,13.5c-6.1,0-12.2,0-18.3,0
		c-3.2,0-5.6-2.3-5.6-5.3c0-3,2.4-5.3,5.6-5.3c5.9,0,11.8,0,17.7,0c2.5,0,3.4-1,3.4-3.4c0-14.4,0-28.8,0-43.2
		C142.7,83.5,142.6,83.1,142.6,82.6z M121.3,61.3c-0.4,0-0.6-0.1-0.9-0.1c-20,0-40,0-59.9,0c-2,0-3.1,1.1-3.1,3.1c0,2,0.1,4,0,6
		c-0.1,1.2,0.3,1.6,1.5,1.6c20.4,0,40.8,0,61.1,0c0.4,0,0.9,0,1.3-0.1C121.3,68.3,121.3,64.8,121.3,61.3z M132,66.5c0,1.5,0,3,0,4.4
		c0,0.7,0.2,0.9,0.9,0.9c3,0,5.9,0,8.9,0c0.6,0,0.9-0.2,0.9-0.9c0-2.3,0-4.6,0-7c0-1.7-1.1-2.8-2.8-2.8c-2.3-0.1-4.6,0-7,0
		c-0.8,0-0.9,0.4-0.9,1C132,63.6,132,65.1,132,66.5z"/>
	<path class="st1" d="M105.3,111.5c0,0.9,0,1.3,0,1.8c0,12.6,0,25.3,0,37.9c0,1.7-0.4,3.2-1.6,4.4c-1.6,1.5-3.5,2-5.5,1.2
		c-2.1-0.8-3.2-2.3-3.5-4.5c-0.1-0.6,0-1.1,0-1.7c0-12.5,0-25,0-37.5c0-0.5,0-0.9,0-1.7c-0.6,0.5-0.9,0.8-1.1,1
		c-1.9,1.9-3.8,3.8-5.7,5.7c-2.2,2.1-5.5,2.1-7.6,0.1c-2.2-2.2-2.2-5.4,0-7.6c5.3-5.3,10.6-10.6,15.9-15.9c2.2-2.2,5.4-2.2,7.6,0
		c5.3,5.3,10.6,10.6,15.9,15.9c2.2,2.2,2.2,5.5,0.1,7.6c-2.1,2.1-5.4,2-7.7-0.2c-1.9-1.8-3.7-3.7-5.6-5.6
		C106.2,112.3,105.9,112.1,105.3,111.5z"/>
</g>
</svg>
