<?xml version="1.0" encoding="utf-8"?>
<!-- Generator: Adobe Illustrator 27.2.0, SVG Export Plug-In . SVG Version: 6.00 Build 0)  -->
<svg version="1.1" id="uuid-c5f36760-9dfc-4ceb-bf54-37c88f4f95a2"
	 xmlns="http://www.w3.org/2000/svg" xmlns:xlink="http://www.w3.org/1999/xlink" x="0px" y="0px" viewBox="0 0 200 200"
	 style="enable-background:new 0 0 200 200;" xml:space="preserve">
<style type="text/css">
	.st0{fill:#E00000;}
	.st1{fill:#FFFFFF;}
</style>
<g>
	<circle class="st0" cx="100" cy="100" r="95"/>
</g>
<g>
	<path class="st1" d="M67.5,73.5c21.7,0,43.2,0,64.9,0c-0.1,2-0.2,3.9-0.4,5.8c-1.1,15-2.2,30.1-3.3,45.1
		c-0.4,5.9-0.8,11.7-1.3,17.6c-0.2,3.2-2.3,5.2-5.5,5.2c-14.7,0-29.4,0-44.1,0c-3.1,0-5.2-2-5.5-5.1c-0.7-9.5-1.4-18.9-2.1-28.4
		c-0.9-12-1.7-23.9-2.6-35.9C67.7,76.5,67.6,75.1,67.5,73.5z M98,110.2c0,8.8,0,17.5,0,26.3c0,0.4,0,0.9,0,1.3c0.1,1.2,0.9,2,2,2
		c1.1,0,1.9-0.8,2-2c0-0.3,0-0.6,0-1c0-17.7,0-35.4,0-53.1c0-0.5,0-1-0.1-1.4c-0.2-1-1-1.5-2-1.5c-1,0-1.7,0.6-1.9,1.5
		c-0.1,0.5-0.1,1-0.1,1.6C98,92.7,98,101.4,98,110.2z M117.9,110.1C117.9,110.1,117.9,110.1,117.9,110.1c0-1,0.1-1.9,0.1-2.9
		c0.4-7.9,0.8-15.7,1.2-23.6c0-0.1,0-0.2,0-0.4c0-1.4-0.7-2.3-1.8-2.4c-1.2-0.1-2.1,0.8-2.2,2.2c-0.1,2-0.2,4-0.3,6
		c-0.7,12.9-1.4,25.8-2.1,38.8c-0.2,3.1-0.3,6.3-0.5,9.4c0,1,0.2,1.9,1.2,2.3c0.9,0.3,1.8,0.2,2.4-0.6c0.3-0.5,0.5-1.3,0.5-1.9
		C117,128,117.5,119,117.9,110.1z M86.2,110.6C86.2,110.6,86.2,110.6,86.2,110.6c-0.4-7.4-0.8-14.9-1.1-22.3
		c-0.1-1.8-0.1-3.6-0.3-5.4c-0.2-1.8-1.9-2.7-3.2-1.6c-0.5,0.4-0.8,1.3-0.8,2c0.2,5.2,0.5,10.4,0.8,15.7c0.6,12.5,1.3,25.1,1.9,37.6
		c0,0.6,0,1.2,0.2,1.8c0.3,1,1.1,1.5,2.1,1.4c1.1-0.1,1.7-0.7,1.7-1.8c0-0.8,0-1.5-0.1-2.3C87.1,127.3,86.6,118.9,86.2,110.6z"/>
	<path class="st1" d="M100,69.3c-12,0-24,0-36.1,0c-1.4,0-2.8-0.1-3.6-1.4c-1.2-1.8-1-3.8-0.3-5.7c0.7-1.7,2.3-2,3.9-2
		c24.1,0,48.3,0,72.4,0c3.1,0,4.3,1.3,4.3,4.3c0,0.5,0,1,0,1.6c-0.2,1.7-1.4,2.9-3,3.1c-0.6,0.1-1.1,0.1-1.7,0.1
		C123.9,69.3,111.9,69.3,100,69.3z"/>
	<path class="st1" d="M115,56.3c0-1.8,0-3.3,0-4.9c0-2-1.1-3.1-3-3.1c-7.9,0-15.8,0-23.8,0c-2,0-3,1.1-3,3.1c0,1.6,0,3.1,0,4.9
		c-1.2,0-2.3,0-3.4,0c-0.2,0-0.6-0.5-0.6-0.8c0-1.6-0.1-3.2,0-4.8c0.2-3.6,3-6.2,6.6-6.2c8.2,0,16.4,0,24.6,0c3.6,0,6.3,2.6,6.6,6.1
		c0.1,1.6,0.1,3.3,0,4.9c0,0.3-0.4,0.8-0.7,0.8C117.2,56.4,116.2,56.3,115,56.3z"/>
</g>
</svg>
